<svg xmlns="http://www.w3.org/2000/svg" width="234.913" height="235.557" viewBox="0 0 234.913 235.557">
  <g id="noun_clothing_2207999" transform="translate(-10.027)">
    <path id="Path_26" data-name="Path 26" d="M229,130.363c0-.032-.022-.058-.027-.091V117.544a2.617,2.617,0,0,0-2.617-2.617H159.141V82.372l27.335,16.841a2.618,2.618,0,0,0,3.817-1.293l12.375-32.342a2.619,2.619,0,0,0-.629-2.821l-43.7-42.094a2.332,2.332,0,0,0-.2-.142,2.53,2.53,0,0,0-.366-.26,2.572,2.572,0,0,0-.373-.15,2.5,2.5,0,0,0-.329-.132l-25.834-5.54C127.4,8.285,115.188,5,103.553,5,92.025,5,79.919,8.222,75.966,14.265L51.241,19.987a2.5,2.5,0,0,0-.327.137,1.892,1.892,0,0,0-.711.4c-.058.046-.125.075-.179.127L5.931,62.749a2.614,2.614,0,0,0-.671,2.735L16.248,97.826a2.616,2.616,0,0,0,3.8,1.419l29.171-17v85.033a2.617,2.617,0,0,0,2.617,2.617h51.249L96.1,237.671a2.618,2.618,0,0,0,2.6,2.886h47.844a2.618,2.618,0,0,0,2.5-1.854l18.062-59.273,20,59.346a2.618,2.618,0,0,0,2.481,1.781H237.42a2.618,2.618,0,0,0,2.6-2.884ZM159.141,28.7,197.16,65.322,186.532,93.1,159.141,76.223ZM49.214,76.181,20.174,93.11l-9.42-27.728,38.46-36.718Zm177.414,82.291c-3.97-.849-15.384-5.037-21.512-25.224h18.918ZM103.553,10.235c14.468,0,23.7,4.944,23.7,8.349s-9.233,8.349-23.7,8.349-23.7-4.944-23.7-8.349S89.085,10.235,103.553,10.235Zm-49.1,67.45V24.617l20.31-4.7c1.426,7.964,15.494,12.251,28.794,12.251,13.24,0,27.25-4.246,28.783-12.142l21.571,4.626v90.275H109.588a2.617,2.617,0,0,0-2.617,2.617V130.63a2.5,2.5,0,0,0,.1.493l-.758,7.359H54.449Zm56.831,63.671.835-8.109H131.03c-6.127,20.188-17.54,24.375-21.511,25.224l1.464-14.223.3-2.878a.07.07,0,0,1,0-.014Zm-56.831,2.361h51.326l-.061.591-.289,2.783-.465,4.478H54.449Zm0,20.938V156.8h49.971l-.8,7.852Zm90.164,70.667h-43l.808-7.852h44.588Zm19.763-64.853L148.6,222.235H102.956l5.629-54.692h0l.11-1.082.267-2.594c3.3-.381,19.947-3.636,27.522-30.615h27.89Zm-52.17-42.456v-7.852H223.739v7.852ZM187.122,222.4,169.61,170.435V133.247h30.051c7.576,26.98,24.224,30.234,27.522,30.614l6,58.373H187.931a2.559,2.559,0,0,0-.809.166Zm4.355,12.923-2.646-7.852h44.893l.807,7.852Z" transform="translate(4.907 -5)" fill="#4c5479"/>
  </g>
</svg>
