<svg xmlns="http://www.w3.org/2000/svg" width="237" height="237" viewBox="0 0 237 237">
  <g id="noun_Construction_3156727" transform="translate(-1.958)">
    <g id="Group_1" data-name="Group 1" transform="translate(1.958)">
      <path id="Path_1" data-name="Path 1" d="M238,46.871V1H101.847L82.734,39.226h32.943v76.452H85.1V62.161H77.452V46.871H54.516V31.581H46.871v15.29H39.226V23.935H31.581V46.871H8.645v15.29H1V238H238V161.548h-7.645V46.871ZM184.484,8.645h45.871V39.226H184.484ZM222.71,152.321l-29-29,29-29Zm7.645,32.163H199.774v-15.29h30.581ZM192.129,132.55l29,29h-29Zm0,36.643v15.29H161.548v-15.29Zm-49.694,38.226v-15.29h30.581v15.29ZM153.9,184.484H123.323v-15.29H153.9Zm-38.226,0H85.1v-15.29h30.581ZM85.1,192.129H96.565v15.29H85.1Zm19.113,0H134.79v15.29H104.21ZM153.9,215.064v15.29H123.323v-15.29Zm7.645,0h30.581v15.29H161.548Zm19.113-7.645v-15.29h30.581v15.29Zm38.226-15.29h11.468v15.29H218.887ZM192.126,114.1v-58l29,29ZM134.79,13.37l9.11,18.211H125.685ZM119.5,26.856,110.395,8.645h18.211ZM140.975,8.645h18.211l-9.1,18.211Zm26.758,0h9.1V31.581H156.266ZM104.21,13.37l9.105,18.211H95.1Zm19.113,25.856h53.516v7.645h7.645V161.548H85.1v-15.29h76.452V115.677H123.323Zm30.581,84.1v15.29H85.1v-15.29ZM16.29,54.516H69.806v7.645H16.29Zm61.161,15.29v7.645H8.645V69.806ZM8.645,230.355V85.1H77.452V230.355ZM85.1,215.064h30.581v15.29H85.1Zm114.677,15.29v-15.29h30.581v15.29ZM222.71,75.869l-29-29h29Z" transform="translate(-1 -1)" fill="#4c5479"/>
      <rect id="Rectangle_1" data-name="Rectangle 1" width="7.807" height="15.614" transform="translate(190.558 15.614)" fill="#4c5479"/>
      <rect id="Rectangle_2" data-name="Rectangle 2" width="7.807" height="15.614" transform="translate(213.979 15.614)" fill="#4c5479"/>
      <rect id="Rectangle_3" data-name="Rectangle 3" width="7.807" height="7.807" transform="translate(61.738 91.735)" fill="#4c5479"/>
      <rect id="Rectangle_4" data-name="Rectangle 4" width="7.807" height="7.807" transform="translate(46.124 91.735)" fill="#4c5479"/>
      <rect id="Rectangle_5" data-name="Rectangle 5" width="7.807" height="7.807" transform="translate(30.509 91.735)" fill="#4c5479"/>
      <rect id="Rectangle_6" data-name="Rectangle 6" width="7.807" height="7.807" transform="translate(14.895 91.735)" fill="#4c5479"/>
      <rect id="Rectangle_7" data-name="Rectangle 7" width="7.807" height="7.807" transform="translate(14.895 107.349)" fill="#4c5479"/>
      <rect id="Rectangle_8" data-name="Rectangle 8" width="7.807" height="7.807" transform="translate(46.124 107.349)" fill="#4c5479"/>
      <rect id="Rectangle_9" data-name="Rectangle 9" width="7.807" height="7.807" transform="translate(61.738 107.349)" fill="#4c5479"/>
      <rect id="Rectangle_10" data-name="Rectangle 10" width="7.807" height="7.807" transform="translate(30.509 107.349)" fill="#4c5479"/>
      <rect id="Rectangle_11" data-name="Rectangle 11" width="7.807" height="7.807" transform="translate(61.738 122.964)" fill="#4c5479"/>
      <rect id="Rectangle_12" data-name="Rectangle 12" width="7.807" height="7.807" transform="translate(14.895 122.964)" fill="#4c5479"/>
      <rect id="Rectangle_13" data-name="Rectangle 13" width="7.807" height="7.807" transform="translate(30.509 122.964)" fill="#4c5479"/>
      <rect id="Rectangle_14" data-name="Rectangle 14" width="7.807" height="7.807" transform="translate(46.124 122.964)" fill="#4c5479"/>
      <rect id="Rectangle_15" data-name="Rectangle 15" width="7.807" height="5.855" transform="translate(30.509 138.578)" fill="#4c5479"/>
      <rect id="Rectangle_16" data-name="Rectangle 16" width="7.807" height="5.855" transform="translate(61.738 138.578)" fill="#4c5479"/>
      <rect id="Rectangle_17" data-name="Rectangle 17" width="7.807" height="5.855" transform="translate(46.124 138.578)" fill="#4c5479"/>
      <rect id="Rectangle_18" data-name="Rectangle 18" width="7.807" height="5.855" transform="translate(14.895 138.578)" fill="#4c5479"/>
      <rect id="Rectangle_19" data-name="Rectangle 19" width="7.807" height="7.807" transform="translate(46.124 152.241)" fill="#4c5479"/>
      <rect id="Rectangle_20" data-name="Rectangle 20" width="7.807" height="7.807" transform="translate(30.509 152.241)" fill="#4c5479"/>
      <rect id="Rectangle_21" data-name="Rectangle 21" width="7.807" height="7.807" transform="translate(14.895 152.241)" fill="#4c5479"/>
      <rect id="Rectangle_22" data-name="Rectangle 22" width="7.807" height="7.807" transform="translate(61.738 152.241)" fill="#4c5479"/>
      <rect id="Rectangle_23" data-name="Rectangle 23" width="7.807" height="7.807" transform="translate(46.124 167.856)" fill="#4c5479"/>
      <rect id="Rectangle_24" data-name="Rectangle 24" width="7.807" height="7.807" transform="translate(30.509 167.856)" fill="#4c5479"/>
      <rect id="Rectangle_25" data-name="Rectangle 25" width="7.807" height="7.807" transform="translate(14.895 167.856)" fill="#4c5479"/>
      <rect id="Rectangle_26" data-name="Rectangle 26" width="7.807" height="7.807" transform="translate(61.738 167.856)" fill="#4c5479"/>
      <rect id="Rectangle_27" data-name="Rectangle 27" width="7.807" height="7.807" transform="translate(30.509 183.47)" fill="#4c5479"/>
      <rect id="Rectangle_28" data-name="Rectangle 28" width="7.807" height="7.807" transform="translate(46.124 183.47)" fill="#4c5479"/>
      <rect id="Rectangle_29" data-name="Rectangle 29" width="7.807" height="7.807" transform="translate(61.738 183.47)" fill="#4c5479"/>
      <rect id="Rectangle_30" data-name="Rectangle 30" width="7.807" height="7.807" transform="translate(14.895 183.47)" fill="#4c5479"/>
      <rect id="Rectangle_31" data-name="Rectangle 31" width="7.807" height="7.807" transform="translate(61.738 199.085)" fill="#4c5479"/>
      <rect id="Rectangle_32" data-name="Rectangle 32" width="7.807" height="7.807" transform="translate(46.124 199.085)" fill="#4c5479"/>
      <rect id="Rectangle_33" data-name="Rectangle 33" width="7.807" height="7.807" transform="translate(14.895 199.085)" fill="#4c5479"/>
      <rect id="Rectangle_34" data-name="Rectangle 34" width="7.807" height="7.807" transform="translate(30.509 199.085)" fill="#4c5479"/>
      <rect id="Rectangle_35" data-name="Rectangle 35" width="7.807" height="7.807" transform="translate(61.738 214.699)" fill="#4c5479"/>
      <rect id="Rectangle_36" data-name="Rectangle 36" width="7.807" height="7.807" transform="translate(30.509 214.699)" fill="#4c5479"/>
      <rect id="Rectangle_37" data-name="Rectangle 37" width="7.807" height="7.807" transform="translate(14.895 214.699)" fill="#4c5479"/>
      <rect id="Rectangle_38" data-name="Rectangle 38" width="7.807" height="7.807" transform="translate(46.124 214.699)" fill="#4c5479"/>
    </g>
  </g>
</svg>
