<svg xmlns="http://www.w3.org/2000/svg" width="228.392" height="243.001" viewBox="0 0 228.392 243.001">
  <g id="noun_Hospital_1709021" transform="translate(-14.169 -0.001)">
    <g id="Group_2" data-name="Group 2" transform="translate(14.168)">
      <path id="Path_25" data-name="Path 25" d="M79.165,956.866a3.472,3.472,0,0,0-3.088,3.421V1003.1H37.192c-7.375,0-14.019,5.025-14.019,12.1v159.55H14.411c-3.571,0-7.176,2.573-7.176,6.509v12.1c0,3.936,3.606,6.509,7.176,6.509h214.04c3.571,0,7.176-2.572,7.176-6.509v-12.1c0-3.936-3.606-6.509-7.176-6.509h-8.762V1015.2c0-7.075-6.644-12.1-14.019-12.1h-38.8V960.287a3.471,3.471,0,0,0-3.5-3.421H79.5q-.167-.008-.334,0ZM83,963.792h76.938v68.259H83Zm29.79,11.849v13.6H99.109V1006.6h13.685v13.685h17.357V1006.6h13.6V989.243h-13.6v-13.6Zm-75.6,34.38H76.078v25.451a3.472,3.472,0,0,0,3.421,3.5h83.864a3.472,3.472,0,0,0,3.5-3.5v-25.451h38.8c4.3,0,7.093,2.619,7.093,5.174v159.55H141.25V1132.1c0-3.936-3.522-6.509-7.093-6.509H108.705c-3.57,0-7.093,2.573-7.093,6.509v42.641H30.1v-159.55c0-2.554,2.794-5.174,7.093-5.174Zm11.516,45.645v14.77h19.61v-14.77Zm41.974,0v14.77h19.61v-14.77Zm41.974,0v14.77H152.18v-14.77Zm41.974,0v14.77h19.526v-14.77ZM48.708,1090.3v14.77h19.61V1090.3Zm41.974,0v14.77h19.61V1090.3Zm41.974,0v14.77h19.526V1090.3Zm41.974,0v14.77h19.526V1090.3ZM48.709,1124.93v14.853h19.61V1124.93Zm125.921,0v14.853h19.526V1124.93Zm-65.923,7.594h25.451c.174,0,.146.083.167.083v42.14H108.539V1132.6c.021,0-.008-.08.167-.08Zm-94.294,49.15H25.176a3.524,3.524,0,0,0,3,0h75.436a3.524,3.524,0,0,0,3,0h29.707a3.524,3.524,0,0,0,3,0h75.436a3.524,3.524,0,0,0,3,0h10.681a.4.4,0,0,1,.25.083v11.182H14.244v-11.182c.021,0-.008-.083.167-.083Z" transform="translate(-7.234 -956.861)" fill="#4c5479"/>
    </g>
  </g>
</svg>
