<svg id="noun_hostel_2513454" xmlns="http://www.w3.org/2000/svg" width="243" height="243" viewBox="0 0 243 243">
  <path id="Path_1" data-name="Path 1" d="M231.609,0H218.32A11.4,11.4,0,0,0,206.93,11.391H153.773a15.2,15.2,0,0,0-14.688,11.391H119.718c-11,0-18.983,4.582-22.611,12.436A17.074,17.074,0,1,0,75.732,60.75H58.852V35.944A13.031,13.031,0,0,0,45.987,22.781H36.07V11.391A11.4,11.4,0,0,0,24.68,0H11.391A11.4,11.4,0,0,0,0,11.391V231.609A11.4,11.4,0,0,0,11.391,243H24.68A11.4,11.4,0,0,0,36.07,231.609H206.93A11.4,11.4,0,0,0,218.32,243h13.289A11.4,11.4,0,0,0,243,231.609V11.391A11.4,11.4,0,0,0,231.609,0ZM146.18,26.578a7.6,7.6,0,0,1,7.594-7.594H206.93V60.75h-7.594V53.156a3.8,3.8,0,1,0-7.594,0V60.75H161.367V53.156a3.8,3.8,0,1,0-7.594,0V60.75H146.18ZM45.987,163.266H36.07V91.125h117.7v60.75a15.2,15.2,0,0,0-14.688,11.391H119.718c-11,0-18.983,4.582-22.611,12.436a17.074,17.074,0,1,0-21.375,25.533H58.852V176.429A13.031,13.031,0,0,0,45.987,163.266ZM191.742,68.344V83.531H161.367V68.344Zm0,22.781v15.188H161.367V91.125Zm0,37.969H161.367V113.906h30.375Zm-30.375,7.594h30.375v15.188H161.367ZM83.536,195.539a9.492,9.492,0,1,1,9.488-9.5,9.492,9.492,0,0,1-9.488,9.5Zm13.377,1.109a19.437,19.437,0,0,0,2.675,4.586H91.334a17.142,17.142,0,0,0,5.578-4.587Zm5.6-10.576c.1-9.672,6.359-15.213,17.2-15.213h18.868v30.375h-20.6C107.532,201.234,102.608,196.414,102.518,186.072Zm43.662,15.162V167.063a7.6,7.6,0,0,1,7.594-7.594H206.93v41.766Zm53.156-49.359V91.125h7.594v60.75Zm0-68.344V68.344h7.594V83.531ZM119.718,30.375h18.868V60.75h-20.6c-10.456,0-15.38-4.82-15.471-15.162C102.621,35.916,108.877,30.375,119.718,30.375Zm-36.183,5.7a9.492,9.492,0,1,1-9.5,9.485A9.492,9.492,0,0,1,83.536,36.07ZM96.913,56.164a19.437,19.437,0,0,0,2.675,4.586H91.334A17.142,17.142,0,0,0,96.913,56.164Zm56.861,12.18V83.531H58.852V68.344ZM45.987,30.375a5.432,5.432,0,0,1,5.271,5.569V83.531H36.07V30.375ZM28.477,231.609a3.8,3.8,0,0,1-3.8,3.8H11.391a3.8,3.8,0,0,1-3.8-3.8V11.391a3.8,3.8,0,0,1,3.8-3.8H24.68a3.8,3.8,0,0,1,3.8,3.8Zm7.594-60.75h9.917a5.432,5.432,0,0,1,5.271,5.569v47.587H36.07Zm22.781,53.156V208.828H206.93v15.188Zm176.555,7.594a3.8,3.8,0,0,1-3.8,3.8H218.32a3.8,3.8,0,0,1-3.8-3.8V11.391a3.8,3.8,0,0,1,3.8-3.8h13.289a3.8,3.8,0,0,1,3.8,3.8Z" fill="#4c5479"/>
</svg>
