<svg xmlns="http://www.w3.org/2000/svg" width="213.763" height="236.967" viewBox="0 0 213.763 236.967">
  <g id="noun_Food_2649274" transform="translate(-35.997 -7.875)">
    <g id="Group_3" data-name="Group 3" transform="translate(35.997 7.875)">
      <path id="Path_35" data-name="Path 35" d="M141.964,244.842a12.675,12.675,0,0,1-10.946-6.319l-16.8-29.1L98.492,240.584c-1.623,2.821-5.1,4.252-10.124,4.252-4.3,0-9.329-1.107-11.969-2.632-2.4-1.383-5.581-4.744-7.738-8.174-2.971-4.723-3.655-8.756-1.974-11.666l29.231-44.639-9.809-16.992L59.3,176.216l-1.1-2.046C55.116,168.423-16.817,33.176,25.059,9l1.947-1.125,84.406,146.2,26.357-40.244a37.108,37.108,0,0,1-4.894-43.757l44.582-58.679,9.269,5.353L152.115,64.154a2.964,2.964,0,0,0,1.2,3.787,3,3,0,0,0,3.994-1.068l34.455-47.22,7.315,4.222-29.06,50.337a2.928,2.928,0,0,0,1.068,3.991,3,3,0,0,0,3.988-1.071L204.136,26.8l7.315,4.222L187.894,84.257a3.133,3.133,0,0,0-.4,2.433,2.9,2.9,0,0,0,1.362,1.773,2.994,2.994,0,0,0,3.991-1.068l23.644-53.467,9.269,5.353-28.4,67.7a37.151,37.151,0,0,1-40.472,17.892L127.81,182.484,152.88,225.9a12.622,12.622,0,0,1-10.916,18.937ZM113.951,199.96l20.965,36.313a8.331,8.331,0,0,0,11.1,2.977,8.122,8.122,0,0,0,2.974-11.1L122.7,182.625l31.812-63.045,1.782.5a32.677,32.677,0,0,0,37.039-15.1l26.741-63.786-1.5-.867-21.727,49.1A7.573,7.573,0,0,1,186.6,92.359a7.419,7.419,0,0,1-2.716-10.139l21.445-48.5L178.966,79.38a7.618,7.618,0,0,1-10.135,2.72,7.431,7.431,0,0,1-2.716-10.139L192.473,26.3l-31.4,43.022a7.638,7.638,0,0,1-10.01,2.514A7.421,7.421,0,0,1,148.348,61.7L180.14,18.14l-1.5-.864L136.614,72.564a32.568,32.568,0,0,0,5.6,39.385l1.32,1.293-32.361,49.413L25.428,14.143C-6.024,37.815,52.3,153.1,61.084,169.987l26.672-15.4L101.2,177.875,70.518,224.729c-.681,1.185.042,3.874,1.95,6.91a22.526,22.526,0,0,0,6.178,6.673c1.728,1,5.833,2.028,9.719,2.028,3.178,0,5.482-.708,6.166-1.89ZM62.422,165.315l-1.08-2.1C34.88,111.914,11.46,46.156,22.581,23.013l1.845-3.844L97.2,145.226ZM25.125,29.38C19.508,53.343,39.642,110.8,64.264,159.052l26.792-15.474Z" transform="translate(-11.997 -7.875)" fill="#4c5479"/>
    </g>
  </g>
</svg>
