<svg xmlns="http://www.w3.org/2000/svg" width="247.314" height="242.312" viewBox="0 0 247.314 242.312">
  <g id="noun_Home_677005" transform="translate(-29.152 -2.486)">
    <path id="Path_2" data-name="Path 2" d="M247.161,103.278,130.639,4.139a6.959,6.959,0,0,0-9,0L4.732,103.711a6.938,6.938,0,1,0,8.991,10.57l.917-.79V237.858a6.94,6.94,0,0,0,6.94,6.94H229.868a6.94,6.94,0,0,0,6.94-6.94V112.7l1.363,1.159a6.943,6.943,0,0,0,8.991-10.582ZM153.5,230.484H97.962V149.492H153.5Zm69.429.433H167.391V142.552a6.94,6.94,0,0,0-6.94-6.94H91.022a6.94,6.94,0,0,0-6.94,6.94v88.366H28.545V101.673l97.6-83.132,96.783,82.342Z" transform="translate(26.863 0)" fill="#4c5479"/>
  </g>
</svg>
