<svg xmlns="http://www.w3.org/2000/svg" width="204.041" height="243" viewBox="0 0 204.041 243">
  <g id="noun_hospitality_1154403" transform="translate(-29.283)">
    <path id="Path_27" data-name="Path 27" d="M124.886,115.745h-.178L47.317,114.9a15.761,15.761,0,0,1-15.6-15.946l.553-48.2A15.794,15.794,0,0,1,48.042,35.16h.172l77.391.846a15.765,15.765,0,0,1,15.6,15.952l-.55,48.206A15.784,15.784,0,0,1,124.886,115.745ZM48.042,40.891a10.048,10.048,0,0,0-10.034,9.92l-.553,48.208a10.029,10.029,0,0,0,9.923,10.146l77.394.846h.112a10.043,10.043,0,0,0,10.032-9.917l.55-48.206a10.034,10.034,0,0,0-9.923-10.152L48.152,40.89Z" transform="translate(45.636 43.794)" fill="#4c5479"/>
    <path id="Path_28" data-name="Path 28" d="M87.216,52.976,43.454,52.5l.083-7.374a16.235,16.235,0,0,1,16.442-16.08l11.23.12A16.265,16.265,0,0,1,87.3,45.62Zm-37.962-6.15,32.3.353.017-1.626A10.528,10.528,0,0,0,71.152,34.9l-11.23-.12A10.438,10.438,0,0,0,49.277,45.19Z" transform="translate(67.544 32.377)" fill="#4c5479"/>
    <rect id="Rectangle_39" data-name="Rectangle 39" width="76.035" height="5.734" transform="matrix(0.012, -1, 1, 0.012, 102.805, 158.303)" fill="#4c5479"/>
    <rect id="Rectangle_40" data-name="Rectangle 40" width="72.77" height="5.734" transform="matrix(0.012, -1, 1, 0.012, 155.378, 155.612)" fill="#4c5479"/>
    <path id="Path_29" data-name="Path 29" d="M184.614,197.808H22.239V87.656A80.123,80.123,0,0,1,102.271,7.621h2.308a80.125,80.125,0,0,1,80.035,80.035ZM27.973,192.074H178.88V87.656a74.385,74.385,0,0,0-74.3-74.3h-2.308a74.381,74.381,0,0,0-74.3,74.3V192.074Z" transform="translate(27.936 -7.621)" fill="#4c5479"/>
    <path id="Path_30" data-name="Path 30" d="M218.993,105.228H14.952v-33.2H218.993ZM20.686,99.494H213.259V77.757H20.686Z" transform="translate(14.331 112.617)" fill="#4c5479"/>
    <path id="Path_31" data-name="Path 31" d="M38.791,111.585A14.746,14.746,0,1,1,53.539,96.839,14.746,14.746,0,0,1,38.791,111.585Zm0-23.756A9.012,9.012,0,1,0,47.8,96.843,9.012,9.012,0,0,0,38.791,87.829Z" transform="translate(31.31 131.415)" fill="#4c5479"/>
    <path id="Path_32" data-name="Path 32" d="M81.1,111.585A14.746,14.746,0,1,1,95.85,96.838,14.746,14.746,0,0,1,81.1,111.585Zm0-23.756a9.012,9.012,0,1,0,9.014,9.013A9.012,9.012,0,0,0,81.1,87.829Z" transform="translate(110.298 131.415)" fill="#4c5479"/>
    <rect id="Rectangle_41" data-name="Rectangle 41" width="121.666" height="5.734" transform="translate(75.158 198.375)" fill="#4c5479"/>
    <path id="Path_33" data-name="Path 33" d="M166.21,94.808H25.954V61.849H166.21ZM31.688,89.074H160.476V67.583H31.688Z" transform="translate(34.872 93.622)" fill="#4c5479"/>
    <rect id="Rectangle_42" data-name="Rectangle 42" width="5.734" height="28.071" transform="translate(77.099 159.25)" fill="#4c5479"/>
    <rect id="Rectangle_43" data-name="Rectangle 43" width="5.734" height="28.982" transform="translate(179.717 158.338)" fill="#4c5479"/>
  </g>
</svg>
