<svg xmlns="http://www.w3.org/2000/svg" width="244.574" height="243" viewBox="0 0 244.574 243">
  <g id="noun_Project_3344599" transform="translate(-28.296 -11.613)">
    <path id="Path_3" data-name="Path 3" d="M151.394,31.726l16.8,16.8,2.627,2.537-2.627,2.624-7.353,7.44a80.618,80.618,0,0,1,7.267,13.564,82.776,82.776,0,0,1,4.461,14.79h14.086v3.673l.086,23.714v3.673H172.567a82.853,82.853,0,0,1-4.461,14.79,84.6,84.6,0,0,1-7.267,13.651l7.353,7.35,2.627,2.627-2.627,2.624-16.8,16.8-2.713,2.71-2.627-2.889-6.739-7.526a85.121,85.121,0,0,1-12.687,7,78.647,78.647,0,0,1-16.889,5.251l-1.926.352-1.4-1.4-14-14.089-6.3-6.214h8.835a56.555,56.555,0,0,0,39.9-96.52h-.086a56.529,56.529,0,0,0-96.431,39.816V113.8l-6.3-6.3-14-14-1.4-1.4.349-1.926a80.8,80.8,0,0,1,5.164-16.537A68.594,68.594,0,0,1,28.884,61.12l-7.35-7.44-2.627-2.624,2.627-2.537,16.8-16.8,2.627-2.627,2.627,2.627,7.35,7.35a72.957,72.957,0,0,1,13.651-7.264h0a75.194,75.194,0,0,1,14.7-4.464V13.17h31.151V27.342a80.05,80.05,0,0,1,15.138,4.637h0a79.769,79.769,0,0,1,13.737,7.44l6.739-7.612,2.627-2.889ZM160.4,51.152,148.943,39.69l-6.387,7.088-2.189,2.451L137.654,47.3a74.565,74.565,0,0,0-14.963-8.576h0A75.013,75.013,0,0,0,106.154,34l-3.062-.438V20.523H86.641V33.563L83.579,34a73,73,0,0,0-16.188,4.55h0a71.487,71.487,0,0,0-14.7,8.313L50.15,48.7l-2.275-2.275-6.912-6.912L29.323,51.066l7,7,2.189,2.275-1.84,2.537A68.069,68.069,0,0,0,28.887,76.53,74.1,74.1,0,0,0,24.6,89.656l6.912,6.915a64.513,64.513,0,0,1,18.2-36.753,63.906,63.906,0,0,1,90.306.086h0a63.828,63.828,0,0,1-36.664,108.417l6.912,7a78.186,78.186,0,0,0,13.475-4.374,71.277,71.277,0,0,0,13.913-8.137l2.713-2.013,2.189,2.537,6.387,7.088L160.4,158.961l-7-6.915-2.186-2.278,1.837-2.537a67.471,67.471,0,0,0,8.227-14.7,68.666,68.666,0,0,0,4.55-16.188l.525-3.152H179.4l-.086-16.364H166.356l-.525-3.152a72.832,72.832,0,0,0-4.55-16.188,70.621,70.621,0,0,0-8.227-14.614l-1.837-2.534,2.186-2.275Z" transform="translate(31.174 3.249)" fill="#4c5479"/>
    <path id="Path_4" data-name="Path 4" d="M16.612,35.343,180.947,199.678l6.3,6.3H10.312V29.046ZM169.4,198.542,17.662,46.808V198.542Z" transform="translate(17.984 36.382)" fill="#4c5479"/>
    <path id="Path_5" data-name="Path 5" d="M13.985,52.1a3.675,3.675,0,0,1,0-7.35H32.449a3.675,3.675,0,0,1,0,7.35H13.985Z" transform="translate(17.984 69.156)" fill="#4c5479"/>
    <path id="Path_6" data-name="Path 6" d="M13.985,58.9a3.673,3.673,0,1,1,0-7.347H32.449a3.673,3.673,0,1,1,0,7.347Z" transform="translate(17.984 83.356)" fill="#4c5479"/>
    <path id="Path_7" data-name="Path 7" d="M14.156,65.451a3.675,3.675,0,0,1,0-7.35h18.46a3.675,3.675,0,0,1,0,7.35Z" transform="translate(18.341 97.019)" fill="#4c5479"/>
    <path id="Path_8" data-name="Path 8" d="M14.156,71.6a3.639,3.639,0,0,1-3.673-3.674,3.694,3.694,0,0,1,3.673-3.673h18.46a3.7,3.7,0,0,1,3.673,3.673A3.637,3.637,0,0,1,32.617,71.6Z" transform="translate(18.341 109.858)" fill="#4c5479"/>
    <path id="Path_9" data-name="Path 9" d="M14.156,77.98a3.675,3.675,0,0,1,0-7.35h18.46a3.675,3.675,0,0,1,0,7.35Z" transform="translate(18.341 123.167)" fill="#4c5479"/>
    <path id="Path_10" data-name="Path 10" d="M14.156,84.186a3.674,3.674,0,0,1,0-7.347h18.46a3.674,3.674,0,0,1,0,7.347Z" transform="translate(18.341 136.125)" fill="#4c5479"/>
    <path id="Path_11" data-name="Path 11" d="M28.067,99.967a3.719,3.719,0,1,1-7.437,0V81.5a3.719,3.719,0,0,1,7.437,0Z" transform="translate(39.518 138.193)" fill="#4c5479"/>
    <path id="Path_12" data-name="Path 12" d="M34.781,99.967a3.675,3.675,0,1,1-7.347,0V81.5a3.673,3.673,0,1,1,7.347,0Z" transform="translate(53.717 138.193)" fill="#4c5479"/>
    <path id="Path_13" data-name="Path 13" d="M41.329,99.828a3.673,3.673,0,1,1-7.347,0V81.365a3.673,3.673,0,1,1,7.347,0Z" transform="translate(67.383 137.896)" fill="#4c5479"/>
    <path id="Path_14" data-name="Path 14" d="M47.57,99.828a3.719,3.719,0,0,1-7.437,0V81.365a3.718,3.718,0,0,1,7.437,0Z" transform="translate(80.22 137.896)" fill="#4c5479"/>
    <path id="Path_15" data-name="Path 15" d="M53.861,99.828a3.675,3.675,0,0,1-7.35,0V81.365a3.675,3.675,0,1,1,7.35,0V99.828Z" transform="translate(93.53 137.896)" fill="#4c5479"/>
    <path id="Path_16" data-name="Path 16" d="M60.069,99.828a3.675,3.675,0,0,1-7.35,0V81.365a3.675,3.675,0,1,1,7.35,0Z" transform="translate(106.486 137.896)" fill="#4c5479"/>
    <path id="Path_17" data-name="Path 17" d="M116.651,54.315H80.336V169.644l18.111,28.965,18.2-28.965V54.315Zm7.261-4.64a3.17,3.17,0,0,1,.176.963V170.694a3.2,3.2,0,0,1-.787,2.186l-21.788,34.654a3.744,3.744,0,0,1-5.075,1.139,3.8,3.8,0,0,1-1.139-1.226h0L73.511,172.62a3.54,3.54,0,0,1-.525-1.926h0V50.638a3.11,3.11,0,0,1,.083-.874,3.12,3.12,0,0,1-.083-.877v-25.2a12.1,12.1,0,0,1,3.5-8.576h0a12.09,12.09,0,0,1,8.573-3.5h26.866a12.1,12.1,0,0,1,8.576,3.5l.176.262A11.842,11.842,0,0,1,124,23.689v25.2a2.36,2.36,0,0,1-.09.784ZM111.925,18.963H85.062a4.48,4.48,0,0,0-3.325,1.4h0a4.484,4.484,0,0,0-1.4,3.325V45.128h36.315V23.689a4.821,4.821,0,0,0-1.222-3.238l-.176-.086a4.644,4.644,0,0,0-3.331-1.4Z" transform="translate(148.783 0)" fill="#4c5479"/>
    <rect id="Rectangle_1" data-name="Rectangle 1" width="7.35" height="120.145" transform="translate(236.12 50.638)" fill="#4c5479"/>
    <rect id="Rectangle_2" data-name="Rectangle 2" width="7.437" height="120.145" transform="translate(251.083 50.638)" fill="#4c5479"/>
    <rect id="Rectangle_3" data-name="Rectangle 3" width="20.386" height="7.35" transform="translate(236.994 185.57)" fill="#4c5479"/>
    <path id="Path_18" data-name="Path 18" d="M194.794,73.861v26.165a24.52,24.52,0,0,1-7.264,17.414h0a24.527,24.527,0,0,1-17.414,7.264H50.852a24.082,24.082,0,0,1-13.126-3.849,25.206,25.206,0,0,1-9.187-10.412l6.649-3.152a17.488,17.488,0,0,0,15.663,10.063H170.123a16.989,16.989,0,0,0,12.163-5.075h.086a17.5,17.5,0,0,0,4.985-12.252V73.861h7.437Z" transform="translate(56.023 129.91)" fill="#4c5479"/>
  </g>
</svg>
