<svg xmlns="http://www.w3.org/2000/svg" width="324.103" height="244.74" viewBox="0 0 324.103 244.74">
  <g id="noun_gallery_3430953" transform="translate(-13.489 -128.23)">
    <g id="Group_1" data-name="Group 1" transform="translate(13.489 128.23)">
      <path id="Path_19" data-name="Path 19" d="M42.366,128.23H346.8a9.834,9.834,0,0,1,9.832,9.832V363.134a9.835,9.835,0,0,1-9.832,9.836H42.366a9.839,9.839,0,0,1-9.836-9.836V138.062A9.838,9.838,0,0,1,42.366,128.23Zm177.315,80.433A14.563,14.563,0,1,0,205.118,194.1,14.578,14.578,0,0,0,219.681,208.663Zm0,19.668A34.233,34.233,0,1,1,253.916,194.1,34.237,34.237,0,0,1,219.681,228.33Zm-66.919,5.577L52.2,297.633V353.3H267.774Q210.264,293.6,152.762,233.908ZM52.2,274.366l96.808-61.325a9.8,9.8,0,0,1,12.32,1.484l42.74,44.365,62.785-39.779a9.833,9.833,0,0,1,12.734,1.92l57.377,59.558V147.9H52.2V274.366ZM295.017,353.3h41.948V308.875l-66.351-68.88-52.625,33.347q38.52,39.976,77.028,79.96Z" transform="translate(-32.53 -128.23)" fill="#4c5479"/>
    </g>
  </g>
</svg>
